<svg width="249" height="64" viewBox="0 0 249 64" fill="none" xmlns="http://www.w3.org/2000/svg">
<path d="M90.2 20.4V22.1H96.3V26.9H90.2V41.9H84.5V26.9H81.1L81.7 22.1H84.5V20.2C84.5 14.2 88.5 12.5 92.3 12.5C94.1 12.5 95.7 12.8 97.2 13.3V18.1C96.2 17.6 95.1 17.3 93.8 17.3C91.4 17.3 90.2 18.3 90.2 20.4ZM98 32C98 35.3 99.1 37.9 101.3 39.7C103.5 41.6 106.2 42.5 109.5 42.5C112.4 42.5 114.8 42.1 116.8 41.3V36.8C115 37.6 113 38 110.8 38C107.3 38 104.4 36.7 103.8 33.9H117.8C119.1 28 116.5 21.6 108.3 21.5C103.8 21.5 98 24.6 98 32ZM103.8 30.1C103.8 27.5 105.9 25.8 108.5 25.8C110.1 25.8 111.2 26.3 111.9 27.2C112.6 28.2 112.8 29.1 112.7 30H103.8V30.1ZM120.9 32C120.9 35.3 122 37.9 124.2 39.7C126.4 41.6 129.1 42.5 132.4 42.5C135.3 42.5 137.7 42.1 139.7 41.3V36.8C137.9 37.6 135.9 38 133.7 38C130.2 38 127.3 36.7 126.7 33.9H140.7C142 28 139.4 21.6 131.2 21.5C126.7 21.5 120.9 24.6 120.9 32ZM126.7 30.1C126.7 27.5 128.8 25.8 131.4 25.8C133 25.8 134.1 26.3 134.8 27.2C135.5 28.2 135.7 29.1 135.6 30H126.7V30.1ZM160.1 24.2C158.5 22.4 156.3 21.5 153.6 21.5C150.6 21.5 148.2 22.5 146.5 24.6C144.8 26.7 143.9 29.1 143.9 32C143.9 34.9 144.8 37.4 146.5 39.4C148.2 41.5 150.6 42.5 153.6 42.5C156.7 42.5 159.1 41.3 160.8 39L161.1 41.9H165.8V13L160.1 13.7V24.2ZM160.1 34.4C159.3 36.3 157.3 37.7 154.9 37.7C151.7 37.7 149.7 35.2 149.7 32C149.7 28.8 151.7 26.3 154.9 26.3C157.3 26.3 159.2 27.7 160.1 29.6V34.4ZM170.1 41.9H175.8V13L170.1 13.7V41.9ZM215.7 35.9C214.8 36.9 213.6 37.4 212 37.4C208.7 37.4 205.9 34.1 203.1 30.5C199.8 26.3 196.3 21.6 190.1 21.6C187 21.6 184.4 22.5 182.3 24.4C180.2 26.3 179.1 28.8 179.1 32.1C179.1 35.4 180.2 38 182.3 39.8C184.4 41.7 187 42.6 190.1 42.6C193.4 42.6 195.9 41.3 198.1 39.3C196.9 37.9 195.9 36.5 194.9 35.2C193.4 36.5 191.9 37.4 190.2 37.4C188.6 37.4 187.3 36.9 186.5 35.9C185.6 34.9 185.1 33.6 185.1 32C185.1 30.4 185.6 29.1 186.5 28.1C187.4 27.1 188.6 26.6 190.2 26.6C193.5 26.6 196.3 29.9 199.1 33.5C202.4 37.7 205.9 42.4 212.1 42.4C215.2 42.4 217.8 41.5 219.9 39.6C222 37.7 223.1 35.2 223.1 31.9C223.1 28.6 222 26 219.9 24.2C217.8 22.3 215.2 21.4 212.1 21.4C208.8 21.4 206.3 22.7 204.1 24.7C205.3 26.1 206.3 27.5 207.3 28.8C208.8 27.5 210.3 26.6 212 26.6C213.6 26.6 214.9 27.1 215.7 28.1C216.6 29.1 217.1 30.4 217.1 32C217.1 33.6 216.6 34.9 215.7 35.9ZM232.1 39.8C233.7 41.6 235.9 42.5 238.6 42.5C241.6 42.5 244 41.5 245.7 39.4C247.4 37.3 248.3 34.9 248.3 32C248.3 29.1 247.4 26.6 245.7 24.6C244 22.5 241.6 21.5 238.6 21.5C235.5 21.5 233.1 22.7 231.4 25L231.1 22.1H226.4V51L232.1 50.3V39.8ZM232.1 29.6C232.9 27.7 234.9 26.3 237.3 26.3C240.5 26.3 242.5 28.8 242.5 32C242.5 35.2 240.5 37.7 237.3 37.7C234.9 37.7 233 36.3 232.1 34.4V29.6Z" fill="#171717"/>
<path d="M32 64C49.6731 64 64 49.6731 64 32C64 14.3269 49.6731 0 32 0C14.3269 0 0 14.3269 0 32C0 49.6731 14.3269 64 32 64Z" fill="#171717"/>
<path d="M14.8 59C13.6 58.2 12.4 57.4 11.4 56.5V32C11.4 26.7 15.7 22.3 21.1 22.3C26.7 22.3 30.3 26.9 33.4 30.9C36.3 34.6 39.1 38.2 43 38.2C46.4 38.2 49.2 35.4 49.2 32C49.2 28.6 46.4 25.8 43 25.8C41 25.8 39.3 26.7 37.7 28.1C37 27.2 36.3 26.3 35.6 25.4C37.7 23.6 40.1 22.3 43 22.3C48.3 22.3 52.7 26.6 52.7 32C52.7 37.4 48.4 41.7 43 41.7C37.4 41.7 33.8 37.1 30.7 33.1C27.8 29.4 25 25.8 21.1 25.8C17.7 25.8 14.9 28.6 14.9 32C14.9 35.4 17.7 38.2 21.1 38.2C23.1 38.2 24.8 37.3 26.4 35.9C27.1 36.8 27.8 37.7 28.5 38.6C26.4 40.4 24 41.7 21.1 41.7C18.7 41.7 16.6 40.8 14.9 39.4L14.8 59Z" fill="white"/>
</svg>
